<svg width="32" height="32" viewBox="0 0 32 32" fill="none" xmlns="http://www.w3.org/2000/svg">
<g clip-path="url(#clip0_8003_8053)">
<rect width="32" height="32" rx="4" fill="#FF6700"/>
<path d="M20.6516 6.04831C19.0258 6.04831 17.4 6.4831 16 7.35266C14.6 6.4831 12.9742 6 11.3484 6C6.2 6 2 10.4928 2 16C2 21.5072 6.2 26 11.3484 26C12.9742 26 14.6 25.5169 16 24.6474C17.4 25.5169 19.0258 25.9517 20.6516 25.9517C25.8 25.9517 30 21.4589 30 15.9517C30 10.4928 25.8 6.04831 20.6516 6.04831ZM8.4129 16C8.2774 16.4348 8.23223 16.8696 8.23223 17.3043C8.23223 19.6715 10.0387 21.6039 12.2516 21.6039C13.6968 21.6039 15.0064 20.7826 15.729 19.4783L15.7742 19.43C15.8194 19.3333 15.8645 19.2367 15.9097 19.1401L18.3484 14.0676L18.3935 13.971C18.6645 13.4396 19.1613 13.1014 19.7484 13.1014C20.5613 13.1014 21.2387 13.8261 21.2387 14.6957V14.744V14.7923C21.2387 15.4686 20.9226 16.9179 18.8903 19.0918C16.3161 21.8937 13.9226 22.7633 13.9226 22.8116C13.1097 23.198 12.2065 23.343 11.3032 23.343C7.50969 23.343 4.43871 20.058 4.43871 16C4.43871 11.942 7.50969 8.657 11.3032 8.657C12.0258 8.657 12.7032 8.75363 13.3806 8.99517C10.8065 11.2174 9.13549 13.5846 8.4129 16ZM23.5419 16.0483C23.6774 15.6135 23.7226 15.1787 23.7226 14.6957C23.7226 12.3285 21.9161 10.3961 19.7032 10.3961C18.3032 10.3961 16.9484 11.2174 16.2258 12.5217L16.1806 12.6667C16.1355 12.715 16.0903 12.8116 16.0903 12.8599L13.5613 18.1256C13.2903 18.657 12.7935 18.9469 12.2516 18.9469C11.4387 18.9469 10.7613 18.2222 10.7613 17.3527V17.3043C10.7613 16.628 11.1226 15.1787 13.1097 12.9565C15.6838 10.1546 18.0322 9.33334 18.0774 9.33334C18.9355 8.94687 19.7935 8.75363 20.7419 8.75363C24.5355 8.75363 27.6064 12.0387 27.6064 16.0966C27.6064 20.1546 24.5355 23.4396 20.7419 23.4396C20.0194 23.4396 19.2968 23.343 18.6194 23.1015C21.1935 20.8309 22.8645 18.5121 23.5419 16.0483Z" fill="white"/>
</g>
<defs>
<clipPath id="clip0_8003_8053">
<rect width="32" height="32" fill="white"/>
</clipPath>
</defs>
</svg>
