<svg width="32" height="32" viewBox="0 0 32 32" fill="none" xmlns="http://www.w3.org/2000/svg">
<g clip-path="url(#clip0_8003_8041)">
<path d="M18.3106 24.9746V7.31908C18.3106 5.91206 17.8104 5.43768 16.4453 5.43768H12.3114V7.42235H12.5599C13.5022 7.42235 13.6862 7.63534 13.6862 8.77128V24.9746H18.3106ZM20.3501 24.9746H24.9391V11.2239C24.9391 9.84268 24.4066 9.3457 23.0609 9.3457H20.3501V24.9746ZM11.6595 24.9746V9.35861H8.93908C7.59338 9.35861 7.06736 9.85559 7.06736 11.2368V24.9746H11.6595ZM29.2828 16C29.2828 23.7806 23.687 29.4377 16.0032 29.4377C8.31948 29.4377 2.71077 23.7806 2.71077 16C2.71077 8.21944 8.31625 2.56232 16.0032 2.56232C23.6902 2.56232 29.2828 8.25171 29.2828 16ZM32 16C32 6.85115 25.1553 0 16.0032 0C6.85115 0 0 6.85115 0 16C0 25.1488 6.84469 31.9968 16.0032 31.9968C25.1618 31.9968 32 25.1714 32 16Z" fill="#003781"/>
</g>
<defs>
<clipPath id="clip0_8003_8041">
<rect width="32" height="32" fill="white"/>
</clipPath>
</defs>
</svg>
