<svg width="32" height="32" viewBox="0 0 32 32" fill="none" xmlns="http://www.w3.org/2000/svg">
<g clip-path="url(#clip0_8003_8047)">
<path d="M2.23037 0H29.7696C30.36 0.0036939 30.9252 0.239865 31.3427 0.657343C31.7601 1.07482 31.9963 1.63998 32 2.23037V29.7696C31.9963 30.36 31.7601 30.9252 31.3427 31.3427C30.9252 31.7601 30.36 31.9963 29.7696 32H2.23037C1.63998 31.9963 1.07482 31.7601 0.657343 31.3427C0.239865 30.9252 0.0036939 30.36 0 29.7696L0 2.23037C0 1.63884 0.234985 1.07154 0.653261 0.653261C1.07154 0.234985 1.63884 0 2.23037 0Z" fill="#B70D18"/>
<path d="M30.1218 0.822266C29.9934 0.822868 29.8661 0.846731 29.7462 0.892698L1.19741 11.4107C1.07 11.4587 0.953472 11.5316 0.854679 11.6253C0.755886 11.719 0.676822 11.8315 0.622136 11.9562C0.567451 12.0809 0.538247 12.2152 0.536243 12.3514C0.53424 12.4875 0.559476 12.6227 0.610468 12.7489C0.632712 12.8084 0.664424 12.8639 0.704379 12.9132L11.3163 30.991C11.3859 31.1064 11.478 31.2068 11.5871 31.286C11.6961 31.3653 11.8199 31.4219 11.9512 31.4526C12.0825 31.4832 12.2186 31.4872 12.3515 31.4644C12.4844 31.4416 12.6114 31.3924 12.7249 31.3197C12.8619 31.2415 12.9754 31.128 13.0536 30.991L30.9905 2.39527C31.0629 2.28048 31.1112 2.15224 31.1327 2.01826C31.1541 1.88428 31.1482 1.74735 31.1153 1.61572C31.0824 1.48409 31.0232 1.36048 30.9412 1.25236C30.8592 1.14424 30.7562 1.05384 30.6383 0.986609C30.4807 0.893744 30.3042 0.837573 30.1218 0.822266Z" fill="white"/>
</g>
<defs>
<clipPath id="clip0_8003_8047">
<rect width="32" height="32" fill="white"/>
</clipPath>
</defs>
</svg>
