<svg width="32" height="32" viewBox="0 0 32 32" fill="none" xmlns="http://www.w3.org/2000/svg">
<g clip-path="url(#clip0_8003_8043)">
<path d="M19.3321 25.4893C17.8838 26.6294 16.0875 27.4532 13.9195 27.9337V16.245H10.3898V22.4637C8.84019 21.669 7.53657 20.635 6.51205 19.3327C5.37129 17.8845 4.54884 16.0902 4.06699 13.9209H15.7719V10.3912H9.53695C10.331 8.84019 11.3657 7.53792 12.6679 6.51272C14.1155 5.37197 15.9111 4.55019 18.0784 4.06699V15.9152H21.6082V9.53762C23.1591 10.3324 24.4628 11.367 25.488 12.6679C26.628 14.1155 27.4512 15.9118 27.9323 18.0798H16.3409V21.6102H22.4624C21.6683 23.1605 20.6336 24.4641 19.3321 25.4893ZM32 21.6102L31.7662 19.6382C31.3215 15.8969 30.1314 12.868 28.2587 10.4905C26.5638 8.33739 24.3283 6.75399 21.6082 5.68216V0L19.6375 0.234504C15.8956 0.678507 12.8666 1.8686 10.4892 3.7426C8.33672 5.43617 6.75263 7.67105 5.68216 10.3912H0L0.233828 12.3618C0.677156 16.1037 1.86792 19.134 3.7399 21.5115C5.43617 23.6626 7.67038 25.2474 10.3898 26.3185V32.0007L12.3618 31.7662C16.1024 31.3228 19.1327 30.1321 21.5088 28.2594C23.6619 26.5645 25.246 24.3296 26.3172 21.6102H32Z" fill="#00A94F"/>
</g>
<defs>
<clipPath id="clip0_8003_8043">
<rect width="32" height="32" fill="white"/>
</clipPath>
</defs>
</svg>
