<svg width="32" height="32" viewBox="0 0 32 32" fill="none" xmlns="http://www.w3.org/2000/svg">
<path d="M5.33984 7.00093C6.19494 6.99257 7.23404 7.03514 8.23145 7.35249C9.28763 7.68857 10.3107 8.33859 11.0273 9.49312C11.7133 10.5984 12 11.9771 12 13.5712C11.9999 15.4714 11.7354 17.0293 11.0996 18.2421C10.413 19.5516 9.37749 20.2994 8.23145 20.664C7.20126 20.9918 6.11962 20.993 5.33984 20.9853C5.22134 20.9841 5.10814 20.9837 5 20.9824V25.0712H1V7.07124H3C3.32688 7.07124 3.6771 7.05776 4.07812 7.04097C4.46542 7.02476 4.90283 7.00521 5.33984 7.00093ZM21 11.0703H17V25.0712H13V7.07124L21 7.07027V11.0703ZM31 11.0712H26.2129C26.1875 11.2098 26.1608 11.3666 26.1357 11.5419C25.9664 12.7276 25.875 14.3754 25.875 16.0712C25.875 17.7671 25.9664 19.4149 26.1357 20.6005C26.1608 20.7759 26.1875 20.9327 26.2129 21.0712H31V25.0712H25C24.0472 25.0712 23.445 24.5007 23.1748 24.163C22.8991 23.8183 22.7337 23.4392 22.6309 23.1591C22.4177 22.5789 22.277 21.8687 22.1768 21.1669C21.9711 19.7276 21.875 17.8752 21.875 16.0712C21.875 14.2673 21.9711 12.4149 22.1768 10.9755C22.277 10.2738 22.4177 9.56357 22.6309 8.98335C22.7338 8.70325 22.8989 8.32327 23.1748 7.97847C23.4452 7.64068 24.0476 7.07127 25 7.07124H31V11.0712ZM5 11.0087V17.0097H8V11.0097H5.93945C5.76781 11.0028 5.58148 10.9989 5.37891 11.0009C5.25396 11.0022 5.12809 11.005 5 11.0087Z" fill="#990032"/>
</svg>
