<svg width="32" height="32" viewBox="0 0 32 32" fill="none" xmlns="http://www.w3.org/2000/svg">
<g clip-path="url(#clip0_8003_8079)">
<path d="M31.6276 0.09375H29.6855V32.0004H31.6276V0.09375Z" fill="url(#paint0_linear_8003_8079)"/>
<path d="M26.6334 0H24.6914V31.9067H26.6334V0Z" fill="url(#paint1_linear_8003_8079)"/>
<path d="M21.5934 0H19.6514V31.9067H21.5934V0Z" fill="url(#paint2_linear_8003_8079)"/>
<path d="M16.9225 0H14.9805V31.9067H16.9225V0Z" fill="url(#paint3_linear_8003_8079)"/>
<path d="M11.8834 0H9.94141V31.9067H11.8834V0Z" fill="url(#paint4_linear_8003_8079)"/>
<path d="M6.98206 0H5.04004V31.9067H6.98206V0Z" fill="url(#paint5_linear_8003_8079)"/>
<path d="M1.94204 0.09375H0V32.0004H1.94204V0.09375Z" fill="url(#paint6_linear_8003_8079)"/>
<path d="M4.85477 13.9004V18.9383H3.2364V15.3H1.66418V18.9383H0.0458984V13.9004H4.85477ZM10.542 18.9851H8.92364L10.727 13.9004H12.3916L14.195 18.9383H12.5766L12.3916 18.2853H10.727L10.542 18.9851ZM12.0679 17.259L11.5594 15.3933L11.0507 17.259H12.0679ZM19.7436 18.9851H18.1252V13.9004H20.5295C21.2233 13.9004 21.7781 14.0405 22.1479 14.3202C22.518 14.6469 22.6566 15.02 22.6566 15.5797C22.6566 16.1396 22.518 16.5594 22.1943 16.8392C21.8243 17.2125 21.3158 17.3057 20.5759 17.3057H19.7436V18.9851ZM19.7436 16.1862H20.4371C20.6684 16.1862 20.8071 16.1396 20.8996 16.0463C21.0382 15.9529 21.0844 15.8131 21.0844 15.6265C21.0844 15.3933 20.9921 15.2532 20.7607 15.2067C20.622 15.1133 20.4371 15.1133 20.2059 15.1133H19.7436V16.1862ZM28.3439 16.606L30.0548 13.9472H31.5806V18.9851H30.0086V16.3262L28.2977 18.9851H26.7255V13.9004H28.2977L28.3439 16.606Z" fill="#345352"/>
</g>
<defs>
<linearGradient id="paint0_linear_8003_8079" x1="30.6566" y1="0.09375" x2="30.6566" y2="32.0005" gradientUnits="userSpaceOnUse">
<stop stop-color="#345352"/>
<stop offset="0.1839" stop-color="#345352"/>
<stop offset="0.3731" stop-color="white"/>
<stop offset="0.6699" stop-color="white"/>
<stop offset="0.8" stop-color="#345352"/>
<stop offset="1" stop-color="#345352"/>
</linearGradient>
<linearGradient id="paint1_linear_8003_8079" x1="25.6624" y1="0" x2="25.6624" y2="31.9067" gradientUnits="userSpaceOnUse">
<stop stop-color="#345352"/>
<stop offset="0.1839" stop-color="#345352"/>
<stop offset="0.3731" stop-color="white"/>
<stop offset="0.6699" stop-color="white"/>
<stop offset="0.8" stop-color="#345352"/>
<stop offset="1" stop-color="#345352"/>
</linearGradient>
<linearGradient id="paint2_linear_8003_8079" x1="20.6224" y1="0" x2="20.6224" y2="31.9067" gradientUnits="userSpaceOnUse">
<stop stop-color="#345352"/>
<stop offset="0.1839" stop-color="#345352"/>
<stop offset="0.3731" stop-color="white"/>
<stop offset="0.6699" stop-color="white"/>
<stop offset="0.8" stop-color="#345352"/>
<stop offset="1" stop-color="#345352"/>
</linearGradient>
<linearGradient id="paint3_linear_8003_8079" x1="15.9515" y1="0" x2="15.9515" y2="31.9067" gradientUnits="userSpaceOnUse">
<stop stop-color="#345352"/>
<stop offset="0.1839" stop-color="#345352"/>
<stop offset="0.3731" stop-color="white"/>
<stop offset="0.6699" stop-color="white"/>
<stop offset="0.8" stop-color="#345352"/>
<stop offset="1" stop-color="#345352"/>
</linearGradient>
<linearGradient id="paint4_linear_8003_8079" x1="10.9124" y1="0" x2="10.9124" y2="31.9067" gradientUnits="userSpaceOnUse">
<stop stop-color="#345352"/>
<stop offset="0.1839" stop-color="#345352"/>
<stop offset="0.3731" stop-color="white"/>
<stop offset="0.6699" stop-color="white"/>
<stop offset="0.8" stop-color="#345352"/>
<stop offset="1" stop-color="#345352"/>
</linearGradient>
<linearGradient id="paint5_linear_8003_8079" x1="6.01106" y1="0" x2="6.01106" y2="31.9067" gradientUnits="userSpaceOnUse">
<stop stop-color="#345352"/>
<stop offset="0.1839" stop-color="#345352"/>
<stop offset="0.3731" stop-color="white"/>
<stop offset="0.6699" stop-color="white"/>
<stop offset="0.8" stop-color="#345352"/>
<stop offset="1" stop-color="#345352"/>
</linearGradient>
<linearGradient id="paint6_linear_8003_8079" x1="0.971022" y1="0.09375" x2="0.971022" y2="32.0005" gradientUnits="userSpaceOnUse">
<stop stop-color="#345352"/>
<stop offset="0.1839" stop-color="#345352"/>
<stop offset="0.3731" stop-color="white"/>
<stop offset="0.6699" stop-color="white"/>
<stop offset="0.8" stop-color="#345352"/>
<stop offset="1" stop-color="#345352"/>
</linearGradient>
<clipPath id="clip0_8003_8079">
<rect width="32" height="32" fill="white"/>
</clipPath>
</defs>
</svg>
